<?xml version="1.0" encoding="UTF-8" standalone="no"?>
<svg
   xmlns:dc="http://purl.org/dc/elements/1.1/"
   xmlns:cc="http://creativecommons.org/ns#"
   xmlns:rdf="http://www.w3.org/1999/02/22-rdf-syntax-ns#"
   xmlns:svg="http://www.w3.org/2000/svg"
   xmlns="http://www.w3.org/2000/svg"
   xmlns:sodipodi="http://sodipodi.sourceforge.net/DTD/sodipodi-0.dtd"
   xmlns:inkscape="http://www.inkscape.org/namespaces/inkscape"
   inkscape:version="1.0 (4035a4fb49, 2020-05-01)"
   sodipodi:docname="docker-devcontainer-info-symbolic.svg"
   id="svg17"
   version="1.1"
   fill="none"
   viewBox="0 0 16 16"
   height="16"
   width="16">
  <metadata
     id="metadata21">
    <rdf:RDF>
      <cc:Work
         rdf:about="">
        <dc:format>image/svg+xml</dc:format>
        <dc:type
           rdf:resource="http://purl.org/dc/dcmitype/StillImage" />
        <dc:title></dc:title>
      </cc:Work>
    </rdf:RDF>
  </metadata>
  <sodipodi:namedview
     inkscape:snap-global="false"
     inkscape:current-layer="layer1"
     inkscape:cy="8"
     inkscape:cx="8"
     inkscape:zoom="50.25"
     borderlayer="true"
     inkscape:pagecheckerboard="true"
     showgrid="true"
     id="namedview19"
     inkscape:window-height="480"
     inkscape:window-width="640"
     inkscape:pageshadow="2"
     inkscape:pageopacity="0"
     guidetolerance="10"
     gridtolerance="10"
     objecttolerance="10"
     borderopacity="1"
     bordercolor="#666666"
     pagecolor="#ffffff"
     inkscape:document-rotation="0"
     showguides="true"
     inkscape:guide-bbox="true"
     inkscape:lockguides="false">
    <inkscape:grid
       empopacity="0.25098039"
       empcolor="#1a73e8"
       opacity="0.05098039"
       color="#1a73e8"
       empspacing="2"
       spacingy="0.5"
       spacingx="0.5"
       type="xygrid"
       id="grid13"
       enabled="true"
       dotted="false" />
  </sodipodi:namedview>
  <defs
     id="defs15">
    <clipPath
       id="clip0">
      <rect
         id="rect12"
         fill="white"
         height="16"
         width="16" />
    </clipPath>
  </defs>
  <g
     sodipodi:insensitive="true"
     inkscape:label="Icon"
     id="layer1"
     inkscape:groupmode="layer">
    <path
       id="path848"
       style="color:#000000;font-style:normal;font-variant:normal;font-weight:normal;font-stretch:normal;font-size:medium;line-height:normal;font-family:sans-serif;font-variant-ligatures:normal;font-variant-position:normal;font-variant-caps:normal;font-variant-numeric:normal;font-variant-alternates:normal;font-variant-east-asian:normal;font-feature-settings:normal;font-variation-settings:normal;text-indent:0;text-align:start;text-decoration:none;text-decoration-line:none;text-decoration-style:solid;text-decoration-color:#000000;letter-spacing:normal;word-spacing:normal;text-transform:none;writing-mode:lr-tb;direction:ltr;text-orientation:mixed;dominant-baseline:auto;baseline-shift:baseline;text-anchor:start;white-space:normal;shape-padding:0;shape-margin:0;inline-size:0;clip-rule:nonzero;display:inline;overflow:visible;visibility:visible;isolation:auto;mix-blend-mode:normal;color-interpolation:sRGB;color-interpolation-filters:linearRGB;solid-color:#000000;solid-opacity:1;vector-effect:none;fill:#deddda;fill-opacity:1;fill-rule:nonzero;stroke:none;stroke-width:1;stroke-linecap:butt;stroke-linejoin:miter;stroke-miterlimit:4;stroke-dasharray:none;stroke-dashoffset:0;stroke-opacity:1;color-rendering:auto;image-rendering:auto;shape-rendering:auto;text-rendering:auto;enable-background:accumulate;stop-color:#000000"
       d="M 7.5,1 1,4 v 8 L 7.5,15 14,12 V 4 Z M 7.5,3 C 8.6046,3 9.5,3.8954 9.5,5 C 9.5,6.1046 8.6046,7 7.5,7 C 6.3954,7 5.5,6.1046 5.5,5 C 5.5,3.8954 6.3954,3 7.5,3 Z M 7.5,9 C 8.6046,9 9.5,9.8954 9.5,11 C 9.5,12.1046 8.6046,13 7.5,13 C 6.3954,13 5.5,12.1046 5.5,11 C 5.5,9.8954 6.3954,9 7.5,9 Z M 4.5,6 C 5.6046,6 6.5,6.8954 6.5,8 C 6.5,9.1046 5.6046,10 4.5,10 C 3.3954,10 2.5,9.1046 2.5,8 C 2.5,6.8954 3.3954,6 4.5,6 Z M 10.5,6 C 11.6046,6 12.5,6.8954 12.5,8 C 12.5,9.1046 11.6046,10 10.5,10 C 9.3954,10 8.5,9.1046 8.5,8 C 8.5,6.8954 9.3954,6 10.5,6 Z" />
  </g>
</svg>
