<?xml version="1.0" encoding="UTF-8" standalone="no"?>
<svg
   xmlns="http://www.w3.org/2000/svg"
   viewBox="0 0 16 16"
   height="16"
   width="16"
   fill="none">
  <g id="layer1">
    <!-- Layer 3 (Bottom) -->
    <path
       d="M 8,8.5 L 2.5,10.25 L 8,12 L 13.5,10.25 Z"
       style="fill:#deddda;fill-opacity:1;fill-rule:nonzero;stroke:none" />
    <path
       d="M 2,10.75 L 2,13.25 L 7.5,15 L 7.5,12.5 Z"
       style="fill:#deddda;fill-opacity:1;fill-rule:nonzero;stroke:none" />
    <path
       d="M 14,10.75 L 14,13.25 L 8.5,15 L 8.5,12.5 Z"
       style="fill:#deddda;fill-opacity:1;fill-rule:nonzero;stroke:none" />

    <!-- Layer 2 (Middle) -->
    <path
       d="M 8,4.5 L 2.5,6.25 L 8,8 L 13.5,6.25 Z"
       style="fill:#deddda;fill-opacity:1;fill-rule:nonzero;stroke:none" />
    <path
       d="M 2,6.75 L 2,9.25 L 7.5,11 L 7.5,8.5 Z"
       style="fill:#deddda;fill-opacity:1;fill-rule:nonzero;stroke:none" />
    <path
       d="M 14,6.75 L 14,9.25 L 8.5,11 L 8.5,8.5 Z"
       style="fill:#deddda;fill-opacity:1;fill-rule:nonzero;stroke:none" />

    <!-- Layer 1 (Top) -->
    <path
       d="M 8,0.5 L 2.5,2.25 L 8,4 L 13.5,2.25 Z"
       style="fill:#deddda;fill-opacity:1;fill-rule:nonzero;stroke:none" />
    <path
       d="M 2,2.75 L 2,5.25 L 7.5,7 L 7.5,4.5 Z"
       style="fill:#deddda;fill-opacity:1;fill-rule:nonzero;stroke:none" />
    <path
       d="M 14,2.75 L 14,5.25 L 8.5,7 L 8.5,4.5 Z"
       style="fill:#deddda;fill-opacity:1;fill-rule:nonzero;stroke:none" />
  </g>
</svg>
